<?xml version="1.0" standalone="no"?>
<!DOCTYPE svg PUBLIC "-//W3C//DTD SVG 20010904//EN"
 "http://www.w3.org/TR/2001/REC-SVG-20010904/DTD/svg10.dtd">
<svg version="1.0" xmlns="http://www.w3.org/2000/svg"
 width="261.000000pt" height="261.000000pt" viewBox="0 0 261.000000 261.000000"
 preserveAspectRatio="xMidYMid meet">
<metadata>
Created by potrace 1.11, written by Peter Selinger 2001-2013
</metadata>
<g transform="translate(0.000000,261.000000) scale(0.100000,-0.100000)"
fill="#000000" stroke="none">
<path d="M1423 2044 c-219 -37 -386 -214 -418 -444 -8 -52 -12 -61 -28 -59 -7
1 -17 1 -22 0 -7 -1 -11 -71 -10 -207 1 -184 -1 -209 -17 -229 -10 -13 -171
-125 -357 -249 -187 -124 -342 -230 -345 -234 -3 -5 19 -21 47 -37 l52 -28
361 241 c278 184 362 246 366 264 2 12 4 74 3 136 0 61 0 112 1 112 1 0 16
-22 33 -48 29 -45 31 -56 31 -135 0 -47 -5 -96 -11 -109 -5 -13 -81 -70 -169
-128 -88 -58 -160 -108 -160 -112 0 -13 100 -59 113 -52 55 33 315 211 324
223 7 9 12 48 13 94 0 72 1 76 18 66 16 -10 18 -23 17 -85 -1 -41 -7 -80 -14
-87 -6 -8 -83 -62 -172 -122 l-160 -108 28 -18 c75 -50 69 -51 238 61 84 56
162 111 172 122 13 15 18 38 18 96 l1 77 30 -2 c65 -4 165 -3 187 3 20 4 26 1
31 -20 5 -21 77 -73 336 -246 181 -121 331 -220 333 -220 2 0 28 13 57 29 l53
29 -328 218 c-180 120 -330 225 -333 232 -2 7 0 18 6 24 8 8 17 5 31 -13 10
-13 163 -120 339 -237 l319 -213 52 28 c28 15 50 31 48 35 -1 4 -141 100 -312
214 -170 113 -318 213 -327 222 -18 15 -25 77 -10 84 4 2 17 16 30 32 23 30
28 24 22 -27 -1 -10 5 -29 13 -41 15 -22 388 -276 406 -276 10 0 101 50 101
56 0 2 -88 62 -195 134 -117 78 -199 140 -204 153 -5 12 -9 65 -9 117 0 188
-1 193 -17 186 -8 -3 -15 -2 -16 2 -1 4 -3 27 -5 51 -2 24 -11 67 -20 95 -79
244 -321 392 -571 350z"/>
<path d="M480 1449 c0 -86 -2 -97 -22 -116 -13 -11 -116 -82 -231 -158 -114
-76 -209 -141 -212 -145 -2 -4 20 -20 49 -35 l53 -28 224 149 c123 82 229 156
236 164 8 10 12 57 13 140 l0 126 -55 -1 -55 0 0 -96z"/>
<path d="M631 1540 c-4 -3 -7 -57 -6 -120 1 -63 -2 -124 -6 -135 -4 -11 -110
-90 -237 -175 l-230 -154 49 -28 c26 -15 53 -28 59 -28 23 0 461 302 469 323
6 17 8 266 2 312 -1 11 -86 15 -100 5z"/>
<path d="M800 1372 c0 -95 -4 -181 -9 -191 -5 -9 -167 -122 -360 -250 -193
-129 -351 -237 -351 -241 0 -4 22 -19 50 -34 l50 -27 347 231 c192 128 356
241 366 252 15 18 17 44 17 227 l0 207 -55 -1 -55 0 0 -173z"/>
<path d="M2089 1525 c-2 -78 3 -268 7 -279 3 -8 95 -73 204 -146 l200 -133 54
29 c30 16 53 31 51 34 -2 3 -92 64 -199 135 -108 72 -199 138 -202 147 -3 10
-5 60 -6 110 0 126 1 124 -58 124 -43 0 -50 -3 -51 -21z"/>
</g>
</svg>
